<?xml version="1.0" encoding="UTF-8"?><svg id="Layer_2" xmlns="http://www.w3.org/2000/svg" viewBox="0 0 1938 495"><defs><style>.cls-1{fill:#fff;}</style></defs><path id="planet" class="cls-1" d="m852.26,208.31c-63.55,17.25-123.73,29.67-179.47,38.57-16.53-92.14,40.05-183.14,132.13-207.81,91.82-24.6,186.05,25.56,218.07,113.18-51.64,19.99-108.62,39.2-170.73,56.06Z"/><path id="ring" class="cls-1" d="m1194.47,110.12c-2.68-1.7-5.78-2.65-8.86-3.22-7.26-1.14-13.89-.76-20.9-.24-42.56,4.36-84.14,14.66-125.34,25.62,1.53,5.93,3.05,11.85,4.58,17.77,40.87-8.87,71.77-14.63,84.74-16.52,9.86-1.44,17.06-1.77,20.89-1.86-8.87,3.7-17.91,7.11-27,10.46-116.38,41.05-235.44,74.87-355.29,104.37h68.71c-3.83,5.49-6.91,9.96-9,13-3.88,5.65-5.81,8.53-9,13-2.87,4.03-5.27,7.26-6.81,9.32,79.96-19.08,158.81-42.96,235.87-71.46,40.03-15.04,79.85-30.72,117.89-50.61,7.41-3.97,14.92-8.21,21.99-13.17,5.47-3.98,11.1-8.31,14.09-14.87,3.62-7.78.79-17.17-6.56-21.59Zm-14.08,23.84h0s-.02.01-.06,0c-.31-.1-.6-.23-.89-.39l.43.12c.14.05.22.1.33.14l.16.06s.02.03.03.04v.03Z"/><polygon id="line" class="cls-1" points="1905.69 462.41 10.07 462.41 22.3 416.78 1917.92 416.78 1905.69 462.41"/><g><path class="cls-1" d="m99.91,256.86l-34.12,127.39H29.39l34.12-127.39h36.4Z"/><path class="cls-1" d="m135.94,320.55l-17.11,63.69h-36.4l34.12-127.39h36.4l28.48,63.69,17.02-63.69h36.4l-34.12,127.39h-36.4l-28.39-63.69Z"/><path class="cls-1" d="m342.49,256.86l-9.74,36.4h-54.59l-2.46,9.1h54.59l-9.74,36.4h-54.59l-12.19,45.5h-36.4l34.12-127.39h90.99Z"/><path class="cls-1" d="m391.8,256.86l-34.12,127.39h-36.4l34.12-127.39h36.4Z"/><path class="cls-1" d="m427.84,320.55l-17.11,63.69h-36.4l34.12-127.39h36.4l28.48,63.69,17.02-63.69h36.4l-34.12,127.39h-36.4l-28.39-63.69Z"/><path class="cls-1" d="m579.79,256.86l-34.12,127.39h-36.4l34.12-127.39h36.4Z"/><path class="cls-1" d="m622.74,384.25h-36.4l24.39-90.99h-31.85l9.74-36.4h100.09l-9.74,36.4h-31.85l-24.39,90.99Z"/><path class="cls-1" d="m716.19,324.1l-1.18-3.55-26.3-63.69h41.22l13.38,33.12,31.48-33.12h41.31l-59.87,63.97-3.82,4.09-15.92,59.33h-36.4l16.11-60.15Z"/><path class="cls-1" d="m921.55,338.75c-30.33,0-41.8-13.77-34.39-41.31,7.22-27.05,25.99-40.58,56.32-40.58h59.14l-9.74,36.4h-59.14c-6.07,0-9.46,1.4-10.19,4.19-.91,3.28,1.67,4.91,7.73,4.91h27.3c30.33,0,41.89,13.53,34.67,40.58-7.4,27.54-26.27,41.31-56.6,41.31h-59.14l9.74-36.4h59.14c6.07,0,9.55-1.64,10.46-4.91.73-2.79-1.94-4.19-8.01-4.19h-27.3Z"/><path class="cls-1" d="m1034.93,347.85l-9.74,36.4h-36.4l34.12-127.39h63.69c30.33,0,41.43,15.17,33.3,45.5-8.13,30.33-27.36,45.5-57.69,45.5h-27.3Zm14.65-54.59l-4.91,18.2h27.3c6.06,0,9.92-3.03,11.56-9.1,1.64-6.07-.58-9.1-6.64-9.1h-27.3Z"/><path class="cls-1" d="m1127.1,366.05l-11.37,18.2h-36.4l79.62-127.39h45.5l11.37,127.39h-36.4l-1.64-18.2h-50.68Zm44.4-70.97l-21.66,34.58h24.66l-3-34.58Z"/><path class="cls-1" d="m1301.71,256.86h40.95l-9.74,36.4h-40.95c-7.52,0-14.67,2.67-21.43,8.01-6.76,5.34-11.15,11.77-13.15,19.29-2.06,7.52-1.14,13.95,2.77,19.29,3.91,5.34,9.63,8.01,17.15,8.01h40.95l-9.74,36.4h-40.95c-17.59,0-30.94-6.22-40.04-18.65-9.1-12.43-11.28-27.45-6.55-45.04,4.67-17.59,14.89-32.6,30.66-45.04,15.77-12.43,32.45-18.65,50.04-18.65Z"/><path class="cls-1" d="m1445.39,256.86l-9.74,36.4h-54.59l-2.46,9.1h45.5l-9.74,36.4h-45.5l-2.46,9.1h54.59l-9.74,36.4h-90.99l34.12-127.39h90.99Z"/><path class="cls-1" d="m1469.14,347.85h36.4l-9.74,36.4h-72.79l34.12-127.39h36.4l-24.39,90.99Z"/><path class="cls-1" d="m1575.05,256.86l-34.12,127.39h-36.4l34.12-127.39h36.4Z"/><path class="cls-1" d="m1611.08,320.55l-17.11,63.69h-36.4l34.12-127.39h36.4l28.48,63.69,17.01-63.69h36.4l-34.12,127.39h-36.4l-28.39-63.69Z"/><path class="cls-1" d="m1817.63,256.86l-9.74,36.4h-54.59l-2.46,9.1h45.5l-9.74,36.4h-45.5l-2.46,9.1h54.59l-9.74,36.4h-90.99l34.12-127.39h90.99Z"/><path class="cls-1" d="m1843.93,338.75c-30.33,0-41.8-13.77-34.39-41.31,7.22-27.05,25.99-40.58,56.32-40.58h59.14l-9.74,36.4h-59.14c-6.07,0-9.46,1.4-10.19,4.19-.91,3.28,1.67,4.91,7.73,4.91h27.3c30.33,0,41.88,13.53,34.67,40.58-7.4,27.54-26.27,41.31-56.6,41.31h-59.14l9.74-36.4h59.14c6.07,0,9.55-1.64,10.46-4.91.73-2.79-1.94-4.19-8.01-4.19h-27.3Z"/></g></svg>