<?xml version="1.0" encoding="UTF-8"?><svg id="Layer_1" xmlns="http://www.w3.org/2000/svg" viewBox="0 0 637.89 120.02"><defs><style>.cls-1{fill:#fff;}</style></defs><path d="m27.8,21.09v20.4h28.15v7.8h-28.5c-4.1,0-7.4-3.3-7.4-7.4v-21.2c0-4.1,3.3-7.4,7.4-7.4h28.5v7.8h-28.15Z"/><path d="m90.45,27.54v21.75h-7.65v-21.35h-14.1v21.35h-7.65V10.79h7.65v9.5h14.5c3.95,0,7.25,3.3,7.25,7.25Z"/><path d="m117.65,20.29v7.65h-15.65v21.35h-7.65v-21.75c0-3.95,3.3-7.25,7.3-7.25h16Z"/><path d="m129.3,10.79v7.7h-7.65v-7.7h7.65Zm-7.65,9.5h7.65v29h-7.65v-29Z"/><path d="m164.35,28.99h-7.7v-1.05h-14.1v3h14.5c4.05,0,7.3,3.3,7.3,7.25v3.85c0,3.95-3.25,7.25-7.3,7.25h-14.9c-3.95,0-7.25-3.3-7.25-7.25v-1.45h7.65v1.05h14.1v-3h-14.5c-3.95,0-7.25-3.3-7.25-7.25v-3.85c0-3.95,3.3-7.25,7.25-7.25h14.9c4.05,0,7.3,3.3,7.3,7.25v1.45Z"/><path d="m177.1,27.94v13.7h10.75v7.65h-11.1c-4.05,0-7.3-3.3-7.3-7.25V11.69h7.65v8.6h10.75v7.65h-10.75Z"/><path d="m214.05,20.29c4,0,7.25,3.3,7.25,7.25v14.5c0,3.95-3.25,7.25-7.25,7.25h-14.9c-3.95,0-7.25-3.3-7.25-7.25v-14.5c0-3.95,3.3-7.25,7.25-7.25h14.9Zm-14.5,21.35h14.1v-13.7h-14.1v13.7Z"/><path d="m256.05,27.54v14.5c0,3.95-3.25,7.25-7.25,7.25h-14.5v11.5h-7.65V20.29h22.15c4,0,7.25,3.3,7.25,7.25Zm-21.75,14.1h14.1v-13.7h-14.1v13.7Z"/><path d="m289.25,27.54v21.75h-7.65v-21.35h-14.1v21.35h-7.65V10.79h7.65v9.5h14.5c3.95,0,7.25,3.3,7.25,7.25Z"/><path d="m322.45,27.54v11.1h-21.75v3h21.75v7.65h-22.15c-3.95,0-7.25-3.3-7.25-7.25v-14.5c0-3.95,3.3-7.25,7.25-7.25h14.9c4,0,7.25,3.3,7.25,7.25Zm-7.65,4.4v-4h-14.1v4h14.1Z"/><path d="m350.65,20.29v7.65h-15.65v21.35h-7.65v-21.75c0-3.95,3.3-7.25,7.3-7.25h16Z"/><path d="m406.75,13.29v36h-7.75v-14.1h-21.25v14.1h-7.75V13.29h7.75v14.1h21.25v-14.1h7.75Z"/><path d="m441.65,27.54v11.1h-21.75v3h21.75v7.65h-22.15c-3.95,0-7.25-3.3-7.25-7.25v-14.5c0-3.95,3.3-7.25,7.25-7.25h14.9c4,0,7.25,3.3,7.25,7.25Zm-7.65,4.4v-4h-14.1v4h14.1Z"/><path d="m476.4,27.54v21.75h-7.65v-21.35h-14.1v21.35h-7.65v-29h22.15c4,0,7.25,3.3,7.25,7.25Z"/><path d="m503.39,59.69h-17.6v-7.7h17.2v-2.7h-14.5c-4,0-7.3-3.3-7.3-7.25v-21.65h7.65v21.25h14.15v-21.25h7.65v32.05c0,4-3.25,7.25-7.25,7.25Z"/><path d="m544.1,27.54v21.75h-22.15c-4,0-7.25-3.3-7.25-7.25v-11.1h21.75v-3h-21.75v-7.65h22.15c4,0,7.25,3.3,7.25,7.25Zm-7.65,10.1h-14.1v4h14.1v-4Z"/><path d="m571.34,20.29v7.65h-15.65v21.35h-7.65v-21.75c0-3.95,3.3-7.25,7.3-7.25h16Z"/><path d="m603.89,10.79v38.5h-22.2c-4,0-7.25-3.3-7.25-7.25v-14.5c0-3.95,3.25-7.25,7.25-7.25h14.55v-9.5h7.65Zm-21.75,30.85h14.1v-13.7h-14.1v13.7Z"/><path d="m616.99,27.99h-7.65v-7.7h7.65v7.7Zm0,13.65v7.65h-7.65v-7.65h7.65Z"/><path d="m232.74,81.97l-8.12,22.32h-3.69l-5.27-14.36-1.98,5.46c-1.05,2.88-2.26,6.08-3.26,8.9h-3.69l-8.12-22.32h5.12l4.87,13.3.78-2.08c1.33-3.6,2.76-7.6,4.09-11.22h4.43l4.9,13.3.77-2.08c1.33-3.6,2.76-7.6,4.09-11.22h5.08Z"/><path d="m251.4,90.81v6.88h-13.49v1.86h13.49v4.74h-13.74c-2.45,0-4.5-2.05-4.5-4.5v-8.99c0-2.45,2.05-4.5,4.5-4.5h9.24c2.48,0,4.5,2.05,4.5,4.5Zm-4.74,2.73v-2.48h-8.74v2.48h8.74Z"/><path d="m272.94,90.81v8.99c0,2.45-2.02,4.5-4.5,4.5h-13.74v-23.87h4.74v5.89h8.99c2.48,0,4.5,2.05,4.5,4.5Zm-13.49,8.74h8.74v-8.5h-8.74v8.5Z"/><path d="m303.2,81.97c2.54,0,4.62,2.05,4.62,4.59v13.15c0,2.54-2.08,4.59-4.62,4.59h-17.71v-22.32h17.71Zm-12.9,17.49h12.65v-12.65h-12.65v12.65Z"/><path d="m329.36,90.81v6.88h-13.49v1.86h13.49v4.74h-13.74c-2.45,0-4.5-2.05-4.5-4.5v-8.99c0-2.45,2.05-4.5,4.5-4.5h9.24c2.48,0,4.5,2.05,4.5,4.5Zm-4.74,2.73v-2.48h-8.74v2.48h8.74Z"/><path d="m350.44,91.7h-4.77v-.65h-8.74v1.86h8.99c2.51,0,4.53,2.05,4.53,4.5v2.39c0,2.45-2.02,4.5-4.53,4.5h-9.24c-2.45,0-4.5-2.05-4.5-4.5v-.9h4.74v.65h8.74v-1.86h-8.99c-2.45,0-4.5-2.05-4.5-4.5v-2.39c0-2.45,2.05-4.5,4.5-4.5h9.24c2.51,0,4.53,2.05,4.53,4.5v.9Z"/><path d="m358.31,80.42v4.77h-4.74v-4.77h4.74Zm-4.74,5.89h4.74v17.98h-4.74v-17.98Z"/><path d="m374.4,111.39h-10.91v-4.78h10.67v-2.33h-8.99c-2.48,0-4.53-2.05-4.53-4.5v-8.99c0-2.45,2.05-4.5,4.53-4.5h9.24c2.48,0,4.5,2.05,4.5,4.5v16.09c0,2.48-2.01,4.5-4.5,4.5Zm-9.02-11.84h8.78v-8.5h-8.78v8.5Z"/><path d="m400.44,90.81v13.49h-4.74v-13.24h-8.74v13.24h-4.74v-17.98h13.74c2.48,0,4.5,2.05,4.5,4.5Z"/><path d="m421,90.81v6.88h-13.49v1.86h13.49v4.74h-13.74c-2.45,0-4.5-2.05-4.5-4.5v-8.99c0-2.45,2.05-4.5,4.5-4.5h9.24c2.48,0,4.5,2.05,4.5,4.5Zm-4.74,2.73v-2.48h-8.74v2.48h8.74Z"/><path d="m438.48,86.31v4.74h-9.7v13.24h-4.74v-13.49c0-2.45,2.05-4.5,4.53-4.5h9.92Z"/><path class="cls-1" d="m27.8,21.09v20.4h28.15v7.8h-28.5c-4.1,0-7.4-3.3-7.4-7.4v-21.2c0-4.1,3.3-7.4,7.4-7.4h28.5v7.8h-28.15Z"/><path class="cls-1" d="m90.45,27.54v21.75h-7.65v-21.35h-14.1v21.35h-7.65V10.79h7.65v9.5h14.5c3.95,0,7.25,3.3,7.25,7.25Z"/><path class="cls-1" d="m117.65,20.29v7.65h-15.65v21.35h-7.65v-21.75c0-3.95,3.3-7.25,7.3-7.25h16Z"/><path class="cls-1" d="m129.3,10.79v7.7h-7.65v-7.7h7.65Zm-7.65,9.5h7.65v29h-7.65v-29Z"/><path class="cls-1" d="m164.35,28.99h-7.7v-1.05h-14.1v3h14.5c4.05,0,7.3,3.3,7.3,7.25v3.85c0,3.95-3.25,7.25-7.3,7.25h-14.9c-3.95,0-7.25-3.3-7.25-7.25v-1.45h7.65v1.05h14.1v-3h-14.5c-3.95,0-7.25-3.3-7.25-7.25v-3.85c0-3.95,3.3-7.25,7.25-7.25h14.9c4.05,0,7.3,3.3,7.3,7.25v1.45Z"/><path class="cls-1" d="m177.1,27.94v13.7h10.75v7.65h-11.1c-4.05,0-7.3-3.3-7.3-7.25V11.69h7.65v8.6h10.75v7.65h-10.75Z"/><path class="cls-1" d="m214.05,20.29c4,0,7.25,3.3,7.25,7.25v14.5c0,3.95-3.25,7.25-7.25,7.25h-14.9c-3.95,0-7.25-3.3-7.25-7.25v-14.5c0-3.95,3.3-7.25,7.25-7.25h14.9Zm-14.5,21.35h14.1v-13.7h-14.1v13.7Z"/><path class="cls-1" d="m256.05,27.54v14.5c0,3.95-3.25,7.25-7.25,7.25h-14.5v11.5h-7.65V20.29h22.15c4,0,7.25,3.3,7.25,7.25Zm-21.75,14.1h14.1v-13.7h-14.1v13.7Z"/><path class="cls-1" d="m289.25,27.54v21.75h-7.65v-21.35h-14.1v21.35h-7.65V10.79h7.65v9.5h14.5c3.95,0,7.25,3.3,7.25,7.25Z"/><path class="cls-1" d="m322.45,27.54v11.1h-21.75v3h21.75v7.65h-22.15c-3.95,0-7.25-3.3-7.25-7.25v-14.5c0-3.95,3.3-7.25,7.25-7.25h14.9c4,0,7.25,3.3,7.25,7.25Zm-7.65,4.4v-4h-14.1v4h14.1Z"/><path class="cls-1" d="m350.65,20.29v7.65h-15.65v21.35h-7.65v-21.75c0-3.95,3.3-7.25,7.3-7.25h16Z"/><path class="cls-1" d="m406.75,13.29v36h-7.75v-14.1h-21.25v14.1h-7.75V13.29h7.75v14.1h21.25v-14.1h7.75Z"/><path class="cls-1" d="m441.65,27.54v11.1h-21.75v3h21.75v7.65h-22.15c-3.95,0-7.25-3.3-7.25-7.25v-14.5c0-3.95,3.3-7.25,7.25-7.25h14.9c4,0,7.25,3.3,7.25,7.25Zm-7.65,4.4v-4h-14.1v4h14.1Z"/><path class="cls-1" d="m476.4,27.54v21.75h-7.65v-21.35h-14.1v21.35h-7.65v-29h22.15c4,0,7.25,3.3,7.25,7.25Z"/><path class="cls-1" d="m503.39,59.69h-17.6v-7.7h17.2v-2.7h-14.5c-4,0-7.3-3.3-7.3-7.25v-21.65h7.65v21.25h14.15v-21.25h7.65v32.05c0,4-3.25,7.25-7.25,7.25Z"/><path class="cls-1" d="m544.1,27.54v21.75h-22.15c-4,0-7.25-3.3-7.25-7.25v-11.1h21.75v-3h-21.75v-7.65h22.15c4,0,7.25,3.3,7.25,7.25Zm-7.65,10.1h-14.1v4h14.1v-4Z"/><path class="cls-1" d="m571.34,20.29v7.65h-15.65v21.35h-7.65v-21.75c0-3.95,3.3-7.25,7.3-7.25h16Z"/><path class="cls-1" d="m603.89,10.79v38.5h-22.2c-4,0-7.25-3.3-7.25-7.25v-14.5c0-3.95,3.25-7.25,7.25-7.25h14.55v-9.5h7.65Zm-21.75,30.85h14.1v-13.7h-14.1v13.7Z"/><path class="cls-1" d="m616.99,27.99h-7.65v-7.7h7.65v7.7Zm0,13.65v7.65h-7.65v-7.65h7.65Z"/><path class="cls-1" d="m232.74,81.97l-8.12,22.32h-3.69l-5.27-14.36-1.98,5.46c-1.05,2.88-2.26,6.08-3.26,8.9h-3.69l-8.12-22.32h5.12l4.87,13.3.78-2.08c1.33-3.6,2.76-7.6,4.09-11.22h4.43l4.9,13.3.77-2.08c1.33-3.6,2.76-7.6,4.09-11.22h5.08Z"/><path class="cls-1" d="m251.4,90.81v6.88h-13.49v1.86h13.49v4.74h-13.74c-2.45,0-4.5-2.05-4.5-4.5v-8.99c0-2.45,2.05-4.5,4.5-4.5h9.24c2.48,0,4.5,2.05,4.5,4.5Zm-4.74,2.73v-2.48h-8.74v2.48h8.74Z"/><path class="cls-1" d="m272.94,90.81v8.99c0,2.45-2.02,4.5-4.5,4.5h-13.74v-23.87h4.74v5.89h8.99c2.48,0,4.5,2.05,4.5,4.5Zm-13.49,8.74h8.74v-8.5h-8.74v8.5Z"/><path class="cls-1" d="m303.2,81.97c2.54,0,4.62,2.05,4.62,4.59v13.15c0,2.54-2.08,4.59-4.62,4.59h-17.71v-22.32h17.71Zm-12.9,17.49h12.65v-12.65h-12.65v12.65Z"/><path class="cls-1" d="m329.36,90.81v6.88h-13.49v1.86h13.49v4.74h-13.74c-2.45,0-4.5-2.05-4.5-4.5v-8.99c0-2.45,2.05-4.5,4.5-4.5h9.24c2.48,0,4.5,2.05,4.5,4.5Zm-4.74,2.73v-2.48h-8.74v2.48h8.74Z"/><path class="cls-1" d="m350.44,91.7h-4.77v-.65h-8.74v1.86h8.99c2.51,0,4.53,2.05,4.53,4.5v2.39c0,2.45-2.02,4.5-4.53,4.5h-9.24c-2.45,0-4.5-2.05-4.5-4.5v-.9h4.74v.65h8.74v-1.86h-8.99c-2.45,0-4.5-2.05-4.5-4.5v-2.39c0-2.45,2.05-4.5,4.5-4.5h9.24c2.51,0,4.53,2.05,4.53,4.5v.9Z"/><path class="cls-1" d="m358.31,80.42v4.77h-4.74v-4.77h4.74Zm-4.74,5.89h4.74v17.98h-4.74v-17.98Z"/><path class="cls-1" d="m374.4,111.39h-10.91v-4.78h10.67v-2.33h-8.99c-2.48,0-4.53-2.05-4.53-4.5v-8.99c0-2.45,2.05-4.5,4.53-4.5h9.24c2.48,0,4.5,2.05,4.5,4.5v16.09c0,2.48-2.01,4.5-4.5,4.5Zm-9.02-11.84h8.78v-8.5h-8.78v8.5Z"/><path class="cls-1" d="m400.44,90.81v13.49h-4.74v-13.24h-8.74v13.24h-4.74v-17.98h13.74c2.48,0,4.5,2.05,4.5,4.5Z"/><path class="cls-1" d="m421,90.81v6.88h-13.49v1.86h13.49v4.74h-13.74c-2.45,0-4.5-2.05-4.5-4.5v-8.99c0-2.45,2.05-4.5,4.5-4.5h9.24c2.48,0,4.5,2.05,4.5,4.5Zm-4.74,2.73v-2.48h-8.74v2.48h8.74Z"/><path class="cls-1" d="m438.48,86.31v4.74h-9.7v13.24h-4.74v-13.49c0-2.45,2.05-4.5,4.53-4.5h9.92Z"/><rect class="cls-1" x="11.83" y="66.68" width="614.23" height="4.05"/></svg>