<?xml version="1.0" encoding="UTF-8"?>
<svg id="Layer_1" data-name="Layer 1" xmlns="http://www.w3.org/2000/svg" viewBox="0 0 637.89 65.01">
  <defs>
    <style>
      .cls-1 {
        fill: #fff;
      }

      .cls-2 {
        fill: #999;
      }

      .cls-3 {
        fill: #36587a;
      }
    </style>
  </defs>
  <g>
    <g>
      <path d="m26.06,18.73c-.2,0-.35.15-.35.35v22.1c0,.2.15.35.35.35h28.95v6.6h-28.95c-3.85,0-6.95-3.1-6.95-6.95v-22.1c0-3.85,3.1-6.95,6.95-6.95h28.95v6.6h-28.95Z"/>
      <path d="m89.56,26.03v22.1h-6.55v-22.1c0-.2-.15-.35-.35-.35h-15.65c-.2,0-.35.15-.35.35v22.1h-6.55V9.63h6.55v9.5h16c3.75,0,6.9,3.1,6.9,6.9Z"/>
      <path d="m116.41,19.13v6.55h-16.1c-.2,0-.35.15-.35.35v22.1h-6.55v-22.1c0-3.8,3.1-6.9,6.9-6.9h16.1Z"/>
      <path d="m126.36,9.63v6.6h-6.55v-6.6h6.55Zm-6.55,9.5h6.55v29h-6.55v-29Z"/>
      <path d="m160.71,27.28h-6.55v-1.25c0-.2-.15-.35-.35-.35h-15.65c-.2,0-.35.15-.35.35v4c0,.2.15.3.35.3h15.65c3.85,0,6.9,3.1,6.9,6.9v4c0,3.8-3.05,6.9-6.9,6.9h-15.65c-3.8,0-6.9-3.1-6.9-6.9v-1.25h6.55v1.25c0,.2.15.35.35.35h15.65c.2,0,.35-.15.35-.35v-4c0-.2-.15-.3-.35-.3h-15.65c-3.8,0-6.9-3.1-6.9-6.9v-4c0-3.8,3.1-6.9,6.9-6.9h15.65c3.85,0,6.9,3.1,6.9,6.9v1.25Z"/>
      <path d="m172.36,25.68v15.55c0,.2.15.35.35.35h10.95v6.55h-10.95c-3.85,0-6.9-3.1-6.9-6.9V9.63h6.55v9.5h11.3v6.55h-11.3Z"/>
      <path d="m210.11,19.13c3.8,0,6.9,3.1,6.9,6.9v15.2c0,3.8-3.1,6.9-6.9,6.9h-15.65c-3.8,0-6.9-3.1-6.9-6.9v-15.2c0-3.8,3.1-6.9,6.9-6.9h15.65Zm-15.65,6.55c-.2,0-.35.15-.35.35v15.2c0,.2.15.35.35.35h15.65c.2,0,.35-.15.35-.35v-15.2c0-.2-.15-.35-.35-.35h-15.65Z"/>
      <path d="m251.76,26.03v15.2c0,3.8-3.1,6.9-6.9,6.9h-16v11.5h-6.55V19.13h22.55c3.8,0,6.9,3.1,6.9,6.9Zm-6.55,0c0-.2-.15-.35-.35-.35h-15.65c-.2,0-.35.15-.35.35v15.2c0,.2.15.35.35.35h15.65c.2,0,.35-.15.35-.35v-15.2Z"/>
      <path d="m284.96,26.03v22.1h-6.55v-22.1c0-.2-.15-.35-.35-.35h-15.65c-.2,0-.35.15-.35.35v22.1h-6.55V9.63h6.55v9.5h16c3.75,0,6.9,3.1,6.9,6.9Z"/>
      <path d="m318.21,26.03v10.9h-22.9v4.3c0,.2.15.35.35.35h22.55v6.55h-22.55c-3.8,0-6.9-3.1-6.9-6.9v-15.2c0-3.8,3.1-6.9,6.9-6.9h15.65c3.8,0,6.9,3.1,6.9,6.9Zm-6.55,4.3v-4.3c0-.2-.15-.35-.35-.35h-15.65c-.2,0-.35.15-.35.35v4.3h16.35Z"/>
      <path d="m345.16,19.13v6.55h-16.1c-.2,0-.35.15-.35.35v22.1h-6.55v-22.1c0-3.8,3.1-6.9,6.9-6.9h16.1Z"/>
      <path class="cls-3" d="m416.41,12.13v36h-6.6v-14.7h-23.6v14.7h-6.6V12.13h6.6v14.7h23.6v-14.7h6.6Z"/>
      <path class="cls-3" d="m451.31,26.03v10.9h-22.9v4.3c0,.2.15.35.35.35h22.55v6.55h-22.55c-3.8,0-6.9-3.1-6.9-6.9v-15.2c0-3.8,3.1-6.9,6.9-6.9h15.65c3.8,0,6.9,3.1,6.9,6.9Zm-6.55,4.3v-4.3c0-.2-.15-.35-.35-.35h-15.65c-.2,0-.35.15-.35.35v4.3h16.35Z"/>
      <path class="cls-3" d="m486.06,26.03v22.1h-6.55v-22.1c0-.2-.15-.35-.35-.35h-15.65c-.2,0-.35.15-.35.35v22.1h-6.55v-29h22.55c3.8,0,6.9,3.1,6.9,6.9Z"/>
      <path class="cls-3" d="m513.41,59.63h-17.75v-6.6h17.75c.15,0,.3-.1.3-.3v-4.6h-16c-3.8,0-6.9-3.1-6.9-6.9v-22h6.55v22c0,.2.15.35.35.35h15.7c.15,0,.3-.15.3-.35v-22h6.55v33.5c0,3.8-3.05,6.9-6.85,6.9Z"/>
      <path class="cls-3" d="m553.76,26.03v22.1h-22.55c-3.8,0-6.9-3.1-6.9-6.9v-10.9h22.9v-4.3c0-.2-.15-.35-.35-.35h-22.55v-6.55h22.55c3.8,0,6.9,3.1,6.9,6.9Zm-6.55,10.9h-16.35v4.3c0,.2.15.35.35.35h16v-4.65Z"/>
      <path class="cls-3" d="m581.16,19.13v6.55h-16.1c-.2,0-.35.15-.35.35v22.1h-6.55v-22.1c0-3.8,3.1-6.9,6.9-6.9h16.1Z"/>
      <path class="cls-3" d="m612.61,9.63v38.5h-22.6c-3.8,0-6.9-3.1-6.9-6.9v-15.2c0-3.8,3.1-6.9,6.9-6.9h16.05v-9.5h6.55Zm-6.9,31.95c.2,0,.35-.15.35-.35v-15.2c0-.2-.15-.35-.35-.35h-15.7c-.2,0-.3.15-.3.35v15.2c0,.2.1.35.3.35h15.7Z"/>
    </g>
    <g>
      <path class="cls-1" d="m26.06,18.73c-.2,0-.35.15-.35.35v22.1c0,.2.15.35.35.35h28.95v6.6h-28.95c-3.85,0-6.95-3.1-6.95-6.95v-22.1c0-3.85,3.1-6.95,6.95-6.95h28.95v6.6h-28.95Z"/>
      <path class="cls-1" d="m89.56,26.03v22.1h-6.55v-22.1c0-.2-.15-.35-.35-.35h-15.65c-.2,0-.35.15-.35.35v22.1h-6.55V9.63h6.55v9.5h16c3.75,0,6.9,3.1,6.9,6.9Z"/>
      <path class="cls-1" d="m116.41,19.13v6.55h-16.1c-.2,0-.35.15-.35.35v22.1h-6.55v-22.1c0-3.8,3.1-6.9,6.9-6.9h16.1Z"/>
      <path class="cls-1" d="m126.36,9.63v6.6h-6.55v-6.6h6.55Zm-6.55,9.5h6.55v29h-6.55v-29Z"/>
      <path class="cls-1" d="m160.71,27.28h-6.55v-1.25c0-.2-.15-.35-.35-.35h-15.65c-.2,0-.35.15-.35.35v4c0,.2.15.3.35.3h15.65c3.85,0,6.9,3.1,6.9,6.9v4c0,3.8-3.05,6.9-6.9,6.9h-15.65c-3.8,0-6.9-3.1-6.9-6.9v-1.25h6.55v1.25c0,.2.15.35.35.35h15.65c.2,0,.35-.15.35-.35v-4c0-.2-.15-.3-.35-.3h-15.65c-3.8,0-6.9-3.1-6.9-6.9v-4c0-3.8,3.1-6.9,6.9-6.9h15.65c3.85,0,6.9,3.1,6.9,6.9v1.25Z"/>
      <path class="cls-1" d="m172.36,25.68v15.55c0,.2.15.35.35.35h10.95v6.55h-10.95c-3.85,0-6.9-3.1-6.9-6.9V9.63h6.55v9.5h11.3v6.55h-11.3Z"/>
      <path class="cls-1" d="m210.11,19.13c3.8,0,6.9,3.1,6.9,6.9v15.2c0,3.8-3.1,6.9-6.9,6.9h-15.65c-3.8,0-6.9-3.1-6.9-6.9v-15.2c0-3.8,3.1-6.9,6.9-6.9h15.65Zm-15.65,6.55c-.2,0-.35.15-.35.35v15.2c0,.2.15.35.35.35h15.65c.2,0,.35-.15.35-.35v-15.2c0-.2-.15-.35-.35-.35h-15.65Z"/>
      <path class="cls-1" d="m251.76,26.03v15.2c0,3.8-3.1,6.9-6.9,6.9h-16v11.5h-6.55V19.13h22.55c3.8,0,6.9,3.1,6.9,6.9Zm-6.55,0c0-.2-.15-.35-.35-.35h-15.65c-.2,0-.35.15-.35.35v15.2c0,.2.15.35.35.35h15.65c.2,0,.35-.15.35-.35v-15.2Z"/>
      <path class="cls-1" d="m284.96,26.03v22.1h-6.55v-22.1c0-.2-.15-.35-.35-.35h-15.65c-.2,0-.35.15-.35.35v22.1h-6.55V9.63h6.55v9.5h16c3.75,0,6.9,3.1,6.9,6.9Z"/>
      <path class="cls-1" d="m318.21,26.03v10.9h-22.9v4.3c0,.2.15.35.35.35h22.55v6.55h-22.55c-3.8,0-6.9-3.1-6.9-6.9v-15.2c0-3.8,3.1-6.9,6.9-6.9h15.65c3.8,0,6.9,3.1,6.9,6.9Zm-6.55,4.3v-4.3c0-.2-.15-.35-.35-.35h-15.65c-.2,0-.35.15-.35.35v4.3h16.35Z"/>
      <path class="cls-1" d="m345.16,19.13v6.55h-16.1c-.2,0-.35.15-.35.35v22.1h-6.55v-22.1c0-3.8,3.1-6.9,6.9-6.9h16.1Z"/>
      <path class="cls-1" d="m416.41,12.13v36h-6.6v-14.7h-23.6v14.7h-6.6V12.13h6.6v14.7h23.6v-14.7h6.6Z"/>
      <path class="cls-1" d="m451.31,26.03v10.9h-22.9v4.3c0,.2.15.35.35.35h22.55v6.55h-22.55c-3.8,0-6.9-3.1-6.9-6.9v-15.2c0-3.8,3.1-6.9,6.9-6.9h15.65c3.8,0,6.9,3.1,6.9,6.9Zm-6.55,4.3v-4.3c0-.2-.15-.35-.35-.35h-15.65c-.2,0-.35.15-.35.35v4.3h16.35Z"/>
      <path class="cls-1" d="m486.06,26.03v22.1h-6.55v-22.1c0-.2-.15-.35-.35-.35h-15.65c-.2,0-.35.15-.35.35v22.1h-6.55v-29h22.55c3.8,0,6.9,3.1,6.9,6.9Z"/>
      <path class="cls-1" d="m513.41,59.63h-17.75v-6.6h17.75c.15,0,.3-.1.3-.3v-4.6h-16c-3.8,0-6.9-3.1-6.9-6.9v-22h6.55v22c0,.2.15.35.35.35h15.7c.15,0,.3-.15.3-.35v-22h6.55v33.5c0,3.8-3.05,6.9-6.85,6.9Z"/>
      <path class="cls-1" d="m553.76,26.03v22.1h-22.55c-3.8,0-6.9-3.1-6.9-6.9v-10.9h22.9v-4.3c0-.2-.15-.35-.35-.35h-22.55v-6.55h22.55c3.8,0,6.9,3.1,6.9,6.9Zm-6.55,10.9h-16.35v4.3c0,.2.15.35.35.35h16v-4.65Z"/>
      <path class="cls-1" d="m581.16,19.13v6.55h-16.1c-.2,0-.35.15-.35.35v22.1h-6.55v-22.1c0-3.8,3.1-6.9,6.9-6.9h16.1Z"/>
      <path class="cls-1" d="m612.61,9.63v38.5h-22.6c-3.8,0-6.9-3.1-6.9-6.9v-15.2c0-3.8,3.1-6.9,6.9-6.9h16.05v-9.5h6.55Zm-6.9,31.95c.2,0,.35-.15.35-.35v-15.2c0-.2-.15-.35-.35-.35h-15.7c-.2,0-.3.15-.3.35v15.2c0,.2.1.35.3.35h15.7Z"/>
    </g>
  </g>
  <rect class="cls-2" x="358.84" y="2.38" width="6.6" height="55.64"/>
</svg>